<?xml version="1.0" standalone="no"?>
<!DOCTYPE svg PUBLIC "-//W3C//DTD SVG 20010904//EN"
 "http://www.w3.org/TR/2001/REC-SVG-20010904/DTD/svg10.dtd">
<svg version="1.0" xmlns="http://www.w3.org/2000/svg"
 width="560.000000pt" height="560.000000pt" viewBox="0 0 560.000000 560.000000"
 preserveAspectRatio="xMidYMid meet">
<metadata>
Created by potrace 1.15, written by Peter Selinger 2001-2017
</metadata>
<g transform="translate(0.000000,560.000000) scale(0.100000,-0.100000)"
fill="#000000" stroke="none">
<path d="M3127 5004 c-3 -3 -31 -6 -63 -8 -45 -2 -71 -9 -108 -32 -61 -36 -67
-50 -26 -59 69 -15 164 17 213 72 15 17 15 21 3 26 -8 3 -16 3 -19 1z"/>
<path d="M1425 4719 c-27 -21 -97 -62 -155 -90 -285 -138 -401 -208 -459 -275
-30 -36 -57 -40 -34 -6 35 51 174 337 171 351 -2 9 -21 -19 -43 -64 -22 -44
-54 -106 -72 -139 -18 -32 -47 -88 -63 -125 -16 -36 -30 -61 -30 -56 -1 16
-20 -18 -20 -35 0 -13 1 -13 10 0 5 8 10 12 10 9 0 -4 -16 -33 -35 -65 -19
-32 -35 -63 -35 -70 0 -7 -3 -14 -7 -16 -11 -4 -46 -57 -62 -93 -14 -32 -25
-54 -63 -120 -70 -125 -156 -373 -205 -590 -21 -93 -25 -136 -25 -280 0 -181
10 -250 56 -380 38 -110 74 -183 133 -275 33 -50 61 -107 70 -140 20 -83 20
-81 43 -135 50 -116 75 -165 125 -245 164 -265 310 -460 334 -446 6 4 9 1 6
-6 -3 -8 32 -50 87 -103 50 -50 106 -104 122 -121 17 -17 74 -66 126 -109 71
-59 87 -76 65 -70 -17 5 -45 9 -63 9 -21 1 -39 9 -48 21 -12 16 -14 17 -14 2
0 -26 66 -123 104 -152 19 -14 50 -29 70 -32 l36 -6 0 -103 c0 -56 4 -105 8
-108 5 -3 8 -59 7 -124 -1 -115 -3 -122 -35 -188 -53 -106 -173 -251 -266
-321 l-29 -22 187 0 188 -1 -7 89 c-4 61 -2 90 6 95 7 5 11 -4 12 -26 0 -37
21 -144 30 -152 3 -3 3 17 -1 44 -9 67 4 83 21 26 12 -42 29 -62 29 -35 0 7
10 20 22 30 11 11 18 19 14 19 -4 0 2 10 14 22 11 12 20 27 20 34 0 6 8 22 19
35 10 13 22 39 25 56 8 33 26 55 26 31 0 -10 2 -10 8 0 5 7 8 -4 8 -28 0 -22
-4 -40 -9 -40 -5 0 -6 -7 -3 -16 3 -8 -3 -50 -14 -92 -25 -95 -25 -92 6 -92
14 0 23 4 19 9 -3 5 -1 12 4 15 11 7 27 101 23 134 -2 15 1 21 7 17 6 -3 11 1
11 9 0 9 5 16 10 16 10 0 12 -23 14 -143 1 -39 5 -57 14 -57 9 0 11 10 8 33
-3 17 -8 67 -12 111 -3 43 -13 95 -22 115 -12 27 -16 75 -17 191 -2 151 -7
190 -27 190 -5 0 -6 -4 -3 -10 3 -5 2 -10 -3 -10 -14 0 -43 -71 -49 -123 -5
-43 -8 -48 -27 -43 -12 3 -34 6 -49 6 -16 0 -26 4 -22 10 3 5 2 10 -3 10 -5 0
-10 28 -10 62 -1 35 -4 124 -7 198 -3 86 0 150 7 175 15 51 13 49 37 35 14 -7
21 -7 21 0 0 18 16 10 30 -15 7 -13 17 -22 22 -19 4 3 11 -3 15 -13 3 -10 15
-25 26 -34 15 -12 21 -32 24 -75 l4 -59 -17 33 c-20 40 -29 40 -49 3 -8 -16
-19 -31 -25 -33 -6 -2 -14 -39 -17 -83 -5 -72 -4 -78 9 -61 11 14 17 16 23 7
5 -9 13 -3 26 18 10 17 23 31 29 31 5 0 10 13 10 29 0 16 5 31 10 33 6 2 11
36 13 77 l3 75 34 11 c28 10 40 23 66 76 18 36 39 71 48 78 18 15 21 31 6 31
-12 0 -46 -23 -124 -83 -27 -21 -51 -36 -53 -33 -9 9 8 26 45 47 32 17 34 19
10 14 -16 -3 -28 -2 -28 1 0 13 113 114 155 139 57 34 119 52 205 60 103 8
230 35 258 53 12 8 22 11 22 8 0 -12 78 33 83 49 7 18 -6 19 -34 4 -11 -5 -16
-15 -13 -21 4 -6 3 -8 -3 -5 -5 3 -36 -2 -69 -12 -51 -16 -253 -43 -262 -35
-4 2 61 37 215 115 l83 41 167 3 c182 3 190 4 246 31 56 27 44 35 -20 13 -34
-11 -60 -16 -66 -10 -8 8 20 23 48 26 6 0 9 7 7 14 -1 7 2 10 7 7 10 -7 59 29
51 38 -6 5 -14 1 -115 -54 -55 -31 -65 -33 -139 -31 -85 2 -117 14 -69 25 15
4 46 15 68 25 174 77 321 127 425 145 85 15 133 25 209 42 13 3 39 11 59 19
19 8 43 15 53 15 26 0 236 109 302 156 52 38 124 102 156 138 9 11 31 35 49
55 75 81 48 70 -39 -16 -89 -90 -118 -111 -105 -77 3 9 8 34 11 57 2 23 2 33
-1 22 -24 -95 -64 -141 -194 -222 -75 -47 -133 -68 -245 -89 -44 -9 -102 -21
-130 -29 -27 -8 -75 -17 -105 -21 l-55 -7 54 49 c57 52 193 249 216 313 7 21
18 47 24 57 19 34 80 231 92 299 11 63 14 68 63 105 54 41 83 69 168 164 67
74 80 93 129 189 21 42 45 77 52 77 28 0 116 50 150 85 57 59 44 64 -17 7 -29
-28 -70 -58 -91 -66 -40 -17 -54 -15 -38 6 12 15 58 174 67 233 6 37 5 39 -9
21 -8 -11 -17 -36 -20 -55 -4 -20 -14 -63 -24 -95 l-17 -60 -22 45 c-25 51
-21 91 18 211 11 33 20 71 19 82 -1 24 4 35 -47 -114 l-29 -85 -11 45 -10 45
-1 -41 c-1 -48 23 -124 56 -177 21 -34 22 -39 8 -53 -8 -9 -15 -21 -15 -27 0
-7 -13 -31 -28 -54 -82 -125 -165 -242 -194 -275 -33 -37 -123 -108 -137 -108
-4 0 -4 30 0 68 7 64 5 154 -5 197 -12 57 -21 81 -32 92 -21 22 -23 15 -7 -34
37 -123 7 -412 -65 -623 -25 -75 -31 -76 -64 -12 -17 31 -33 59 -37 62 -4 3
-17 25 -28 50 -94 201 -108 256 -108 423 0 75 -3 137 -6 137 -12 0 -21 -158
-14 -230 4 -38 4 -70 0 -70 -8 0 -44 29 -135 106 -98 84 -162 173 -283 389
-52 95 -75 153 -102 263 -28 113 -22 143 40 222 24 30 63 80 87 111 l43 56
115 7 c113 7 155 15 215 41 17 7 48 18 70 25 91 28 174 64 201 86 37 30 9 33
-30 3 -15 -11 -32 -22 -39 -23 -6 -1 -22 -8 -35 -15 -18 -9 -107 -40 -119 -41
-6 0 88 128 106 144 18 17 26 17 63 7 57 -15 92 -13 156 12 65 24 63 31 -3 12
-56 -17 -143 -19 -165 -4 -11 8 -12 12 -2 16 15 6 16 33 0 33 -6 0 -20 -7 -30
-17 -17 -15 -18 -15 -18 9 0 66 10 82 63 106 60 26 131 81 106 82 -9 0 -27 -8
-40 -19 -34 -26 -110 -63 -116 -57 -3 3 0 13 8 23 9 11 10 14 2 9 -16 -9 -17
6 -1 22 8 8 9 15 1 23 -15 15 -56 -120 -57 -195 -2 -52 -7 -68 -36 -111 -50
-72 -97 -112 -149 -129 -57 -18 -241 -32 -241 -19 0 6 16 45 36 88 19 42 33
79 30 83 -8 7 -8 8 -55 -87 -51 -101 -88 -156 -152 -227 -27 -29 -56 -68 -66
-86 l-17 -33 -8 45 c-13 82 -9 386 6 450 3 14 -3 -2 -15 -35 -17 -51 -20 -84
-19 -214 0 -84 2 -156 4 -160 3 -4 7 -31 10 -61 2 -30 12 -89 21 -130 10 -41
21 -91 25 -110 25 -119 204 -449 291 -540 56 -58 189 -169 225 -188 12 -6 26
-29 33 -54 28 -99 134 -315 184 -376 11 -14 -23 -111 -52 -147 -10 -11 -34
-46 -55 -79 -84 -130 -196 -218 -366 -286 -25 -9 -137 -55 -250 -100 -113 -45
-212 -85 -220 -88 -8 -3 -1 10 16 29 47 51 154 216 154 237 0 12 -26 -18 -74
-87 -81 -116 -222 -251 -309 -297 -107 -55 -194 -114 -271 -183 -38 -33 -72
-59 -75 -56 -3 4 -1 9 5 13 14 9 28 112 15 112 -5 0 -12 -21 -16 -48 -7 -53
-37 -126 -54 -137 -7 -4 -48 -6 -91 -6 l-79 1 -48 51 c-57 61 -65 74 -87 161
-10 37 -22 65 -28 62 -12 -7 0 -108 18 -152 7 -17 9 -32 4 -32 -15 0 -180 159
-239 230 -96 115 -181 325 -181 446 0 159 43 366 109 528 91 222 94 226 168
307 63 69 111 144 99 156 -2 2 -16 -12 -32 -32 -16 -19 -42 -51 -58 -70 -36
-45 -44 -39 -17 11 12 21 21 46 21 56 0 9 4 27 9 40 5 13 14 49 21 81 9 47 22
70 58 112 26 29 56 64 68 78 12 14 41 31 65 37 51 14 135 55 145 71 9 15 -26
4 -88 -27 -41 -21 -88 -32 -88 -20 0 2 7 20 16 41 31 75 6 57 -34 -25 -38 -79
-114 -182 -125 -170 -2 3 -2 40 2 83 4 42 4 77 0 77 -11 0 -19 -29 -19 -68 0
-74 -54 -305 -97 -417 -25 -66 -79 -186 -144 -320 -16 -33 -29 -66 -29 -74 0
-8 -11 -42 -24 -75 -25 -64 -51 -207 -42 -232 3 -8 2 -14 -3 -14 -4 0 -6 -24
-4 -53 l4 -52 -17 35 c-16 35 -24 68 -64 250 -19 86 -33 121 -44 109 -3 -2 4
-42 15 -88 11 -46 18 -85 17 -87 -2 -1 -14 6 -28 18 -14 11 -18 17 -10 13 8
-3 2 5 -15 19 -42 36 -53 32 -21 -6 44 -53 83 -144 131 -303 25 -82 67 -194
93 -247 27 -54 43 -98 38 -97 -14 1 -184 190 -202 224 -8 15 -26 43 -42 63
-15 21 -39 54 -52 74 -14 21 -28 38 -32 38 -5 0 -8 5 -8 11 0 6 -9 23 -21 37
-41 54 -126 190 -138 223 -7 19 -25 61 -39 94 -57 135 -64 169 -69 368 -3 103
-8 185 -11 182 -4 -3 -9 -75 -12 -158 l-5 -152 -32 55 c-49 83 -102 197 -108
230 -3 16 -10 41 -16 57 -38 100 -65 441 -41 521 6 20 19 71 28 112 53 241
173 412 404 572 119 83 432 222 590 263 69 18 99 33 40 20 -43 -10 -66 -13
-103 -14 -19 -1 -26 -5 -21 -13 5 -7 2 -9 -8 -5 -9 3 -27 0 -40 -7 -13 -7 -35
-16 -49 -19 -45 -11 -134 -44 -196 -75 -35 -17 -63 -28 -63 -25 0 4 -8 -1 -17
-9 -10 -9 -34 -23 -52 -33 -19 -10 -89 -57 -156 -105 -118 -86 -180 -144 -206
-192 -7 -12 -14 -18 -16 -11 -3 9 54 143 90 208 6 11 37 66 68 123 32 56 63
117 70 136 15 41 104 137 189 203 144 111 371 223 452 223 28 0 217 46 227 55
13 14 -14 18 -42 6 -52 -20 -197 -49 -203 -40 -3 5 -1 9 5 9 12 0 158 98 167
111 13 22 -25 5 -71 -32z"/>
<path d="M2138 4717 c-20 -19 -44 -59 -56 -93 -22 -64 -35 -144 -22 -144 4 0
26 24 49 53 32 43 44 69 57 131 9 43 14 80 11 82 -3 3 -20 -10 -39 -29z"/>
<path d="M1784 4655 c-14 -30 -19 -64 -19 -134 l0 -94 -42 -34 c-23 -19 -70
-50 -105 -68 -63 -34 -57 -47 11 -24 18 6 34 9 37 6 6 -6 -96 -42 -109 -39 -4
1 -24 -5 -45 -13 -23 -10 -38 -12 -40 -6 -2 7 -10 4 -19 -5 -8 -8 -14 -17 -11
-19 2 -2 49 9 103 24 55 16 124 34 153 40 28 6 74 16 102 22 58 12 66 9 75
-31 9 -41 51 -127 89 -180 18 -25 40 -71 50 -102 9 -32 22 -58 27 -58 6 0 24
-9 40 -21 16 -11 29 -16 29 -10 0 5 -16 19 -34 31 -19 11 -37 30 -40 40 -4 11
-9 29 -12 40 -5 19 -4 19 43 -2 50 -23 149 -35 138 -18 -3 6 -17 10 -29 10
-23 0 -161 58 -141 60 6 0 1 8 -10 18 -36 29 -92 106 -97 132 -3 14 -12 40
-19 57 -10 26 -11 35 -1 45 15 15 114 33 327 58 94 11 180 25 193 30 13 6 36
10 52 10 16 0 32 5 35 10 7 11 -112 5 -195 -10 -25 -5 -47 -7 -49 -4 -2 2 4
15 13 28 9 14 16 34 16 45 0 11 16 40 35 65 40 53 43 61 15 46 -19 -10 -52
-71 -80 -147 -12 -33 -23 -40 -75 -47 -17 -2 -69 -9 -117 -16 -87 -12 -133 -9
-93 5 93 33 227 116 212 131 -3 3 -38 -13 -79 -36 -40 -23 -111 -57 -158 -75
-170 -65 -342 -110 -267 -69 15 8 27 19 27 24 0 6 4 9 9 8 21 -6 221 180 221
204 0 7 -17 -5 -38 -27 -34 -37 -116 -105 -127 -105 -3 0 -5 39 -5 88 0 63 4
94 16 110 8 12 13 28 11 35 -3 6 -13 -6 -23 -28z"/>
<path d="M3123 4428 c-33 -41 -17 -174 25 -211 25 -21 63 -32 57 -15 -2 7 -6
37 -9 66 -3 30 -12 68 -21 85 -8 16 -15 35 -15 42 0 6 -6 19 -13 29 -11 15
-15 15 -24 4z"/>
<path d="M2805 4366 c-23 -13 -39 -29 -37 -37 2 -8 0 -11 -4 -7 -20 20 -134
-162 -134 -214 0 -15 3 -28 6 -28 3 0 36 19 72 43 73 47 112 103 131 188 6 25
13 53 17 62 8 23 -3 21 -51 -7z"/>
<path d="M5088 4333 c-33 -8 -18 -22 30 -28 63 -9 108 -32 158 -82 22 -23 54
-45 69 -49 24 -6 27 -5 20 15 -6 19 2 25 67 56 40 19 85 35 100 35 15 0 30 5
33 10 19 30 -157 -13 -222 -55 -19 -13 -23 -12 -36 8 -30 46 -167 102 -219 90z"/>
<path d="M4736 3851 c-5 -7 3 -11 19 -11 15 0 25 -4 23 -9 -4 -10 -115 -101
-124 -101 -3 0 -12 7 -20 15 -24 23 -71 23 -149 -2 -40 -13 -46 -18 -30 -23
11 -4 35 -1 54 6 18 8 43 14 55 14 33 0 66 -28 66 -56 0 -38 29 -42 57 -8 12
16 23 33 23 39 0 15 83 95 98 95 20 0 72 -37 103 -73 l26 -30 47 32 c26 18 67
41 91 52 36 16 67 39 53 39 -8 0 -115 -43 -148 -60 l-38 -20 -35 35 c-19 19
-42 35 -51 35 -21 0 -20 16 2 30 14 10 13 10 -8 5 -29 -7 -34 -7 -76 1 -19 3
-34 1 -38 -5z"/>
<path d="M4080 3572 c0 -5 20 -19 45 -31 61 -30 138 -107 167 -166 26 -55 48
-70 48 -33 1 39 64 97 121 111 37 9 102 37 97 42 -16 17 -206 -47 -223 -75 -9
-14 -35 -12 -35 3 0 22 -71 83 -141 121 -69 38 -79 41 -79 28z"/>
<path d="M4571 2669 c-52 -21 -91 -42 -91 -49 0 -16 91 -33 147 -26 63 7 163
52 163 73 0 16 -181 17 -219 2z"/>
<path d="M3708 2173 c-27 -48 -41 -129 -29 -164 6 -18 11 -43 11 -55 0 -13 5
-24 10 -24 6 0 10 6 10 13 0 8 11 36 25 63 25 50 30 88 19 157 -8 44 -24 47
-46 10z"/>
</g>
</svg>
